<svg xmlns="http://www.w3.org/2000/svg" version="1.0" viewBox="0 0 512 512"><path d="M65.3 197.7c.2 89 .6 163.1 1 164.8 6.7 31.9 17.8 53.5 37.6 73.4 24.5 24.6 53.4 37.6 88.6 39.6l6.5.4V36H65l.3 161.7zM337 37.1c-15.2 2.7-32.1 9.8-42.5 17.9-11.8 9.2-24.4 25-29.9 37.3-5.8 13.2-7.8 22.6-8 38.7-.6 29.4 13.4 58.5 36.4 75.9 1.9 1.4 4.1 3.2 4.9 3.9 2.7 2.6 21.8 11.2 29.6 13.2 10 2.7 29.4 3.7 39.1 2.1 12.8-2.2 24.2-6.4 34.9-12.9 8.1-4.9 7.6-4.5 17.9-14.7 13.7-13.6 22.1-29.1 26.1-48 2.4-11.5 2.2-30.2-.4-39.3-.5-1.7-.8-3.2-.6-3.2.9 0-5.7-16.5-8.6-21.9-13.3-24.3-35.6-41.2-62.8-47.7-8-1.9-28.5-2.7-36.1-1.3zM256.6 284.9c-.2.3-.3 43.3-.2 95.6l.1 95 95.3.1c68.3.1 95.2-.2 95.3-1 .9-8.4-2.2-35-5.2-44.2-.5-1.7-1.2-4.1-1.4-5.4-.5-2.7-3.3-11.6-4.5-14.5-.4-1.1-1.4-3.6-2.1-5.5-2-5.8-15.1-31-16-31-.5 0-.9-.5-.9-1.1 0-4.3-25-33-38-43.6-1.9-1.5-4.4-3.6-5.5-4.6-4.7-4.2-19.6-13.5-31.8-19.6-21.3-10.8-44.5-17.6-67.7-19.6-10.3-1-17.1-1.2-17.4-.6z"/></svg>